# xmcd CD database file
#
# Track frame offsets:
#	150
#	1050
#	14451
#	32590
#	45291
#	63885
#	81685
#	99428
#	117419
#	141535
#	157638
#	173163
#	190541
#	211724
#	231582
#	255637
#	282516
#
# Disc length: 3909 seconds
#
# Revision: 0
# Processed by: cddbd v1.5.1PL2 Copyright (c) Steve Scherf et al.
# Submitted via: CDex 1.51
#
DISCID=dc0f4311
DTITLE=Time Jumpers - Live at the Station Inn
DYEAR=2002
DGENRE=Country
TTITLE0=Introduction (featuring Eddie Stubbs)
TTITLE1=Stay All Night
TTITLE2=My Shoes Keep Walking Back To You
TTITLE3=Roly Poly
TTITLE4=The Heart of a Clown
TTITLE5=Big Beaver
TTITLE6=Maiden's Prayer
TTITLE7=Along the Navajo Trail
TTITLE8=Route 66
TTITLE9=Across the Alley from the Alamo
TTITLE10=A Letter From My Kid
TTITLE11=The Kind of Love
TTITLE12=Faded Love
TTITLE13=Burning Memories
TTITLE14=Undecided
TTITLE15=Embraceable You
TTITLE16=The Time Jumpers Theme
EXTD=YEAR: 2002
EXTT0=
EXTT1=
EXTT2=
EXTT3=
EXTT4=
EXTT5=
EXTT6=
EXTT7=
EXTT8=
EXTT9=
EXTT10=
EXTT11=
EXTT12=
EXTT13=
EXTT14=
EXTT15=
EXTT16=
PLAYORDER=
